# xmcd
#
# Track frame offsets: 
#        150
#        22619
#        41726
#        65796
#        87704
#        106316
#        123859
#        143190
#        170140
#        185462
#        210902
#
# Disc length: 3103 seconds
#
# Revision: 0
# Processed by: cddbd v1.4PL0 Copyright (c) Steve Scherf et al.
# Submitted via: ExactAudioCopy v0.95a3
#
DISCID=980c1d0b
DTITLE=Silent Pain - Tier(Alp)Träume
DYEAR=1997
DGENRE=Blues
TTITLE0=Land of 1000 Dreams
TTITLE1=Rinderträume
TTITLE2=Roots
TTITLE3=Pitbull
TTITLE4=Feelin' Blue
TTITLE5=Lucy
TTITLE6=Tierversuch
TTITLE7=Monkey
TTITLE8=Baby
TTITLE9=Free Creatures
TTITLE10=Boni
EXTD=
EXTT0=
EXTT1=
EXTT2=
EXTT3=
EXTT4=
EXTT5=
EXTT6=
EXTT7=
EXTT8=
EXTT9=
EXTT10=
PLAYORDER=
